<?xml version="1.0" encoding="utf-8"?>
<!-- Generator: Adobe Illustrator 19.2.1, SVG Export Plug-In . SVG Version: 6.00 Build 0)  -->
<svg version="1.1" id="layer" xmlns="http://www.w3.org/2000/svg" xmlns:xlink="http://www.w3.org/1999/xlink" x="0px" y="0px"
	 viewBox="0 0 652 652" style="enable-background:new 0 0 652 652;" xml:space="preserve">
<style type="text/css">
	.st0{fill:#DA2C2B;}
	.st1{fill:#FFFFFF;}
</style>
<rect x="163.1" y="76" class="st0" width="327.1" height="500"/>
<g>
	<path class="st1" d="M236.4,154c-0.6-0.9-1.3-1.7-2.1-2.4c-0.9-0.7-1.8-1.2-2.9-1.6c-1.1-0.4-2.2-0.6-3.4-0.6c-2.2,0-4,0.4-5.5,1.3
		c-1.5,0.8-2.7,2-3.7,3.4c-0.9,1.4-1.6,3-2,4.8c-0.4,1.8-0.6,3.6-0.6,5.6c0,1.8,0.2,3.6,0.6,5.4c0.4,1.7,1.1,3.3,2,4.7
		c0.9,1.4,2.2,2.5,3.7,3.3c1.5,0.8,3.3,1.3,5.5,1.3c2.9,0,5.2-0.9,6.9-2.7c1.7-1.8,2.7-4.2,3-7.1h9.3c-0.2,2.7-0.9,5.2-1.9,7.4
		c-1,2.2-2.4,4.1-4,5.6c-1.7,1.5-3.6,2.7-5.9,3.5c-2.2,0.8-4.7,1.2-7.4,1.2c-3.3,0-6.4-0.6-9-1.7c-2.7-1.2-4.9-2.8-6.8-4.8
		c-1.8-2-3.2-4.4-4.2-7.2c-1-2.7-1.5-5.7-1.5-8.9c0-3.3,0.5-6.3,1.5-9.1c1-2.8,2.4-5.2,4.2-7.3c1.8-2.1,4.1-3.7,6.8-4.9
		c2.7-1.2,5.7-1.8,9-1.8c2.4,0,4.7,0.3,6.8,1c2.1,0.7,4.1,1.7,5.7,3c1.7,1.3,3.1,3,4.2,4.9c1.1,2,1.8,4.2,2.1,6.7h-9.3
		C237.3,155.9,237,154.9,236.4,154"/>
	<path class="st1" d="M260.8,178.4c1.3,1.3,3.2,1.9,5.6,1.9c1.8,0,3.3-0.4,4.5-1.3c1.3-0.9,2-1.8,2.3-2.8h7.6
		c-1.2,3.8-3.1,6.5-5.6,8.1c-2.5,1.6-5.6,2.4-9.2,2.4c-2.5,0-4.7-0.4-6.7-1.2c-2-0.8-3.7-1.9-5.1-3.4c-1.4-1.5-2.5-3.2-3.2-5.3
		c-0.8-2-1.1-4.3-1.1-6.7c0-2.4,0.4-4.6,1.2-6.6c0.8-2,1.9-3.8,3.3-5.3c1.4-1.5,3.1-2.7,5.1-3.5c2-0.9,4.2-1.3,6.6-1.3
		c2.7,0,5,0.5,7,1.6c2,1,3.6,2.4,4.9,4.2c1.3,1.8,2.2,3.8,2.8,6c0.6,2.2,0.8,4.6,0.6,7h-22.8C258.8,175.1,259.5,177.1,260.8,178.4
		 M270.7,161.8c-1-1.1-2.6-1.7-4.7-1.7c-1.4,0-2.5,0.2-3.5,0.7c-0.9,0.5-1.6,1.1-2.2,1.7c-0.5,0.7-0.9,1.4-1.2,2.2
		c-0.2,0.8-0.4,1.5-0.4,2.1h14.1C272.4,164.6,271.7,162.9,270.7,161.8"/>
	<path class="st1" d="M293.7,154.4v5.9h0.1c0.4-1,1-1.9,1.6-2.7c0.7-0.8,1.5-1.5,2.4-2.1c0.9-0.6,1.9-1,2.9-1.4
		c1-0.3,2.1-0.5,3.2-0.5c0.6,0,1.2,0.1,1.9,0.3v8.1c-0.4-0.1-0.9-0.2-1.5-0.2c-0.6-0.1-1.1-0.1-1.6-0.1c-1.6,0-2.9,0.3-4,0.8
		c-1.1,0.5-2,1.3-2.7,2.2c-0.7,0.9-1.2,2-1.4,3.2c-0.3,1.2-0.4,2.5-0.4,4V186h-8.7v-31.6H293.7z"/>
	<path class="st1" d="M329,154.4v5.8h-6.4v15.7c0,1.5,0.2,2.4,0.7,2.9c0.5,0.5,1.5,0.7,2.9,0.7c0.5,0,1,0,1.4-0.1
		c0.4,0,0.9-0.1,1.3-0.2v6.7c-0.7,0.1-1.6,0.2-2.4,0.2c-0.9,0-1.8,0.1-2.6,0.1c-1.3,0-2.6-0.1-3.8-0.3c-1.2-0.2-2.3-0.5-3.2-1.1
		c-0.9-0.5-1.6-1.3-2.2-2.3c-0.5-1-0.8-2.3-0.8-3.8v-18.7h-5.3v-5.8h5.3v-9.5h8.7v9.5H329z"/>
	<path class="st1" d="M333.4,142.3h8.7v7.2h-8.7V142.3z M342.1,186h-8.7v-31.6h8.7V186z"/>
	<path class="st1" d="M345.7,160.2v-5.8h5.2v-2.4c0-2.8,0.9-5.1,2.6-6.9c1.8-1.8,4.4-2.7,8-2.7c0.8,0,1.5,0,2.3,0.1
		c0.8,0.1,1.5,0.1,2.3,0.2v6.5c-1-0.1-2.1-0.2-3.2-0.2c-1.2,0-2,0.3-2.5,0.8c-0.5,0.5-0.8,1.5-0.8,2.8v1.9h6v5.8h-6V186h-8.7v-25.8
		H345.7z"/>
	<path class="st1" d="M370.8,142.3h8.7v7.2h-8.7V142.3z M379.5,186h-8.7v-31.6h8.7V186z"/>
	<path class="st1" d="M393.2,178.4c1.3,1.3,3.2,1.9,5.6,1.9c1.8,0,3.3-0.4,4.5-1.3c1.3-0.9,2-1.8,2.3-2.8h7.6
		c-1.2,3.8-3.1,6.5-5.6,8.1c-2.5,1.6-5.6,2.4-9.2,2.4c-2.5,0-4.7-0.4-6.7-1.2c-2-0.8-3.7-1.9-5.1-3.4c-1.4-1.5-2.5-3.2-3.2-5.3
		c-0.8-2-1.1-4.3-1.1-6.7c0-2.4,0.4-4.6,1.2-6.6c0.8-2,1.9-3.8,3.3-5.3c1.4-1.5,3.1-2.7,5.1-3.5c2-0.9,4.2-1.3,6.6-1.3
		c2.7,0,5,0.5,7,1.6c2,1,3.6,2.4,4.9,4.2c1.3,1.8,2.2,3.8,2.8,6c0.6,2.2,0.8,4.6,0.6,7H391C391.2,175.1,391.9,177.1,393.2,178.4
		 M403,161.8c-1-1.1-2.6-1.7-4.7-1.7c-1.4,0-2.5,0.2-3.5,0.7c-0.9,0.5-1.7,1.1-2.2,1.7c-0.6,0.7-0.9,1.4-1.2,2.2
		c-0.2,0.8-0.4,1.5-0.4,2.1h14.1C404.8,164.6,404,162.9,403,161.8"/>
	<path class="st1" d="M440.2,181.9c-1,1.7-2.4,2.9-4,3.7c-1.7,0.8-3.5,1.1-5.6,1.1c-2.4,0-4.4-0.5-6.2-1.4c-1.8-0.9-3.3-2.2-4.4-3.7
		c-1.2-1.6-2-3.4-2.6-5.4c-0.6-2-0.9-4.2-0.9-6.4c0-2.1,0.3-4.2,0.9-6.1c0.6-2,1.5-3.7,2.6-5.2c1.2-1.5,2.6-2.7,4.4-3.6
		c1.8-0.9,3.8-1.4,6.1-1.4c1.9,0,3.7,0.4,5.3,1.2c1.7,0.8,3,2,4,3.5h0.1v-15.9h8.7V186h-8.3v-4H440.2z M439.8,166.3
		c-0.2-1.2-0.7-2.3-1.3-3.2c-0.6-0.9-1.4-1.7-2.3-2.2c-0.9-0.6-2.1-0.9-3.5-0.9s-2.6,0.3-3.6,0.9c-1,0.6-1.8,1.3-2.4,2.3
		c-0.6,0.9-1,2-1.3,3.2c-0.3,1.2-0.4,2.5-0.4,3.8c0,1.2,0.1,2.4,0.4,3.7c0.3,1.2,0.8,2.3,1.4,3.3c0.6,1,1.4,1.7,2.4,2.3
		c1,0.6,2.1,0.9,3.5,0.9c1.4,0,2.6-0.3,3.6-0.9c1-0.6,1.7-1.3,2.3-2.3c0.6-1,1-2,1.2-3.3c0.2-1.2,0.4-2.5,0.4-3.8
		C440.2,168.8,440.1,167.5,439.8,166.3"/>
	<path class="st1" d="M275.5,257h50.6c12.3,0,28.5,0,36.9,5.1c9.2,5.5,16.4,15.4,16.4,29.1c0,14.8-7.8,26-20.7,31.3v0.4
		c17.2,3.5,26.6,16.4,26.6,33.6c0,20.5-14.7,40.1-42.4,40.1h-67.4V257z M294.1,317h37.2c21.1,0,29.7-7.6,29.7-22.3
		c0-19.4-13.7-22.1-29.7-22.1h-37.2V317z M294.1,380.9h46.5c16,0,26.2-9.8,26.2-25c0-18.2-14.7-23.3-30.3-23.3h-42.4V380.9z"/>
	<path class="st1" d="M432.8,326.8c0,58.6-47.5,106.1-106.2,106.1c-58.6,0-106.1-47.5-106.1-106.1c0-58.6,47.5-106.1,106.1-106.1
		C385.3,220.7,432.8,268.2,432.8,326.8 M326.7,204.5c-67.5,0-122.3,54.7-122.3,122.3c0,67.5,54.7,122.3,122.3,122.3
		c67.5,0,122.3-54.7,122.3-122.3C449,259.2,394.2,204.5,326.7,204.5"/>
	<path class="st1" d="M227,475.4c-0.4-3.1-3.4-5.4-6.8-5.4c-6.1,0-8.4,5.2-8.4,10.6c0,5.1,2.3,10.3,8.4,10.3c4.2,0,6.5-2.9,7-6.9
		h6.6c-0.7,7.7-6,12.6-13.6,12.6c-9.6,0-15.2-7.1-15.2-16.1c0-9.2,5.6-16.3,15.2-16.3c6.8,0,12.5,4,13.3,11.1H227z"/>
	<path class="st1" d="M248,473c7.1,0,11.6,4.7,11.6,11.8c0,7.1-4.5,11.8-11.6,11.8c-7,0-11.6-4.7-11.6-11.8
		C236.5,477.6,241,473,248,473 M248,491.9c4.2,0,5.5-3.6,5.5-7.1c0-3.6-1.3-7.2-5.5-7.2c-4.2,0-5.4,3.6-5.4,7.2
		C242.6,488.3,243.9,491.9,248,491.9"/>
	<path class="st1" d="M263.2,473.6h5.8v4.2h0.1c1.1-2.8,4.2-4.8,7.1-4.8c0.4,0,0.9,0.1,1.3,0.2v5.7c-0.6-0.1-1.5-0.2-2.2-0.2
		c-4.5,0-6.1,3.2-6.1,7.2v10.1h-6.1V473.6z"/>
	<path class="st1" d="M280.9,473.6h5.8v2.9h0.1c1.5-2.4,3.9-3.5,6.7-3.5c7,0,10.2,5.7,10.2,12c0,6-3.3,11.6-9.8,11.6
		c-2.7,0-5.2-1.2-6.7-3.4H287v10.7h-6.1V473.6z M297.5,484.8c0-3.6-1.4-7.2-5.4-7.2c-4,0-5.3,3.6-5.3,7.2c0,3.6,1.4,7.1,5.4,7.1
		C296.2,491.9,297.5,488.5,297.5,484.8"/>
	<path class="st1" d="M318.2,473c7.1,0,11.6,4.7,11.6,11.8c0,7.1-4.6,11.8-11.6,11.8c-7,0-11.6-4.7-11.6-11.8
		C306.6,477.6,311.2,473,318.2,473 M318.2,491.9c4.2,0,5.5-3.6,5.5-7.1c0-3.6-1.3-7.2-5.5-7.2c-4.2,0-5.4,3.6-5.4,7.2
		C312.8,488.3,314,491.9,318.2,491.9"/>
	<path class="st1" d="M333.9,473.6h5.8v4.2h0.1c1.1-2.8,4.2-4.8,7.1-4.8c0.4,0,1,0.1,1.3,0.2v5.7c-0.6-0.1-1.5-0.2-2.2-0.2
		c-4.5,0-6.1,3.2-6.1,7.2v10.1h-6.1V473.6z"/>
	<path class="st1" d="M350.5,480.5c0.4-5.8,5.5-7.5,10.5-7.5c4.5,0,9.8,1,9.8,6.4V491c0,2,0.2,4.1,0.8,5h-6.2
		c-0.2-0.7-0.4-1.4-0.4-2.2c-1.9,2-4.8,2.8-7.5,2.8c-4.2,0-7.6-2.1-7.6-6.7c0-5.1,3.8-6.3,7.6-6.8c3.8-0.6,7.3-0.4,7.3-2.9
		c0-2.6-1.8-3-4-3c-2.3,0-3.9,0.9-4.1,3.4H350.5z M364.7,485c-1,0.9-3.2,1-5.1,1.3c-1.9,0.4-3.6,1-3.6,3.3c0,2.3,1.8,2.9,3.8,2.9
		c4.8,0,5-3.8,5-5.1V485z"/>
	<path class="st1" d="M383.4,473.6h4.5v4.1h-4.5v11.1c0,2.1,0.5,2.6,2.6,2.6c0.7,0,1.3,0,1.9-0.2v4.8c-1,0.2-2.4,0.2-3.6,0.2
		c-3.8,0-7-0.9-7-5.3v-13.2h-3.7v-4.1h3.7v-6.7h6.1V473.6z"/>
	<path class="st1" d="M397.1,470.1H391V465h6.1V470.1z M391,473.6h6.1V496H391V473.6z"/>
	<path class="st1" d="M412,473c7.1,0,11.6,4.7,11.6,11.8c0,7.1-4.6,11.8-11.6,11.8c-7,0-11.5-4.7-11.5-11.8
		C400.4,477.6,405,473,412,473 M412,491.9c4.2,0,5.5-3.6,5.5-7.1c0-3.6-1.2-7.2-5.5-7.2c-4.2,0-5.4,3.6-5.4,7.2
		C406.6,488.3,407.8,491.9,412,491.9"/>
	<path class="st1" d="M427.5,473.6h5.8v3.1h0.1c1.6-2.5,4.2-3.7,6.8-3.7c6.5,0,8.2,3.7,8.2,9.2v13.8h-6.1v-12.6
		c0-3.7-1.1-5.5-3.9-5.5c-3.3,0-4.8,1.9-4.8,6.4v11.7h-6.1V473.6z"/>
	<rect x="204.9" y="515" class="st1" width="243.7" height="15.6"/>
	<path class="st1" d="M452.1,464.1h-1.4v3.9H450v-3.9h-1.4v-0.6h3.6V464.1z M458.1,468h-0.7v-3.8h0l-1.5,3.8h-0.5l-1.5-3.8h0v3.8
		h-0.8v-4.5h1.2l1.4,3.4l1.3-3.4h1.2V468z"/>
</g>
</svg>
